<svg id="Layer_1" enable-background="new 0 0 512 512" height="512" viewBox="0 0 512 512" width="512" xmlns="http://www.w3.org/2000/svg"><g><ellipse clip-rule="evenodd" cx="256" cy="256" fill="#fff4f4" fill-rule="evenodd" rx="241" ry="241" transform="matrix(.707 -.707 .707 .707 -106.039 256)"/><path clip-rule="evenodd" d="m256 15v482c132.738 0 241-108.262 241-241s-108.262-241-241-241z" fill="#f6efea" fill-rule="evenodd"/><g><path d="m412.271 114.73c-3.839 0-7.678-1.464-10.606-4.394-5.858-5.858-5.857-15.355 0-21.213l14.143-14.142c5.857-5.856 15.355-5.858 21.213 0s5.857 15.355 0 21.213l-14.143 14.142c-2.93 2.929-6.769 4.394-10.607 4.394z" fill="#525cdd"/></g><g><path d="m85.587 441.413c-3.839 0-7.678-1.464-10.606-4.393-5.857-5.858-5.858-15.355 0-21.213l14.142-14.142c5.857-5.857 15.355-5.858 21.213 0 5.857 5.858 5.858 15.355 0 21.213l-14.143 14.142c-2.928 2.928-6.767 4.393-10.606 4.393z" fill="#4793ff"/></g><g><path d="m99.729 114.729c-3.839 0-7.678-1.464-10.606-4.394l-14.142-14.141c-5.858-5.858-5.857-15.355 0-21.213 5.857-5.857 15.355-5.857 21.213 0l14.142 14.142c5.858 5.858 5.857 15.355 0 21.213-2.929 2.929-6.769 4.393-10.607 4.393z" fill="#4793ff"/></g><g><path d="m426.412 441.414c-3.839 0-7.678-1.464-10.606-4.394l-14.142-14.142c-5.858-5.858-5.857-15.355 0-21.213 5.858-5.857 15.356-5.857 21.213 0l14.142 14.142c5.858 5.858 5.857 15.355 0 21.213-2.929 2.929-6.769 4.394-10.607 4.394z" fill="#525cdd"/></g><path d="m512 256c0-141.159-114.841-256-256-256s-256 114.841-256 256c0 141.146 114.82 255.978 255.961 255.999.013 0 .026.001.039.001s.026-.001.039-.001c141.141-.021 255.961-114.853 255.961-255.999zm-212.306 221.745c.847-3.445 1.306-7.042 1.306-10.745 0-24.813-20.187-45-45-45s-45 20.187-45 45c0 3.703.459 7.3 1.306 10.745-89.635-17.63-160.421-88.416-178.051-178.051 3.445.848 7.042 1.306 10.745 1.306 24.813 0 45-20.187 45-45s-20.187-45-45-45c-3.703 0-7.3.459-10.745 1.306 17.63-89.635 88.416-160.421 178.052-178.052-.848 3.446-1.307 7.043-1.307 10.746 0 24.813 20.187 45 45 45s45-20.187 45-45c0-3.703-.459-7.3-1.306-10.745 89.636 17.631 160.421 88.416 178.052 178.052-3.446-.848-7.043-1.307-10.746-1.307-24.813 0-45 20.187-45 45s20.187 45 45 45c3.703 0 7.3-.459 10.745-1.306-17.63 89.635-88.416 160.42-178.051 178.051z" fill="#007a9f"/><path d="m313.438 247.936s-114.875 0-114.875.002c-1.69 4.545-3.666 9.533-1.426 14.293l44.805 120.442c2.185 5.874 7.791 9.77 14.059 9.77s11.874-3.896 14.059-9.77c0 0 44.788-120.396 44.806-120.442.302-.813.531-1.658.685-2.52.474-2.645.248-5.444-.685-7.94-.002 0-.516-1.383-1.428-3.835z" fill="#7dd5f4"/><path d="m256 0v90c24.813 0 45-20.187 45-45 0-3.703-.459-7.3-1.306-10.745 89.636 17.631 160.421 88.416 178.052 178.052-3.446-.848-7.043-1.307-10.746-1.307-24.813 0-45 20.187-45 45s20.187 45 45 45c3.703 0 7.3-.459 10.745-1.306-17.631 89.635-88.416 160.42-178.051 178.051.847-3.445 1.306-7.042 1.306-10.745 0-24.813-20.187-45-45-45v90c.013 0 .026-.001.038-.001 141.142-.021 255.962-114.853 255.962-255.999 0-141.159-114.841-256-256-256z" fill="#00607f"/><path d="m314.862 251.771c-.427-1.291-.947-2.554-1.424-3.835h-57.438v144.506c6.267 0 11.874-3.897 14.058-9.77 0 0 44.786-120.389 44.806-120.442.831-2.225 1.091-4.721.793-7.111-.143-1.153-.436-2.26-.795-3.348z" fill="#4793ff"/><path d="m315.783 256.959c-.004-1.774-.305-3.547-.919-5.189 0 0-44.806-120.442-44.806-120.442-2.185-5.874-7.791-9.77-14.059-9.77s-11.874 3.896-14.059 9.77c0 0-44.803 120.438-44.805 120.442-.574 1.542-.933 3.366-.975 5.189z" fill="#ff8856"/><path d="m256 256.959h59.783c-.004-1.774-.305-3.547-.919-5.189 0 0-44.806-120.442-44.806-120.442-2.185-5.873-7.791-9.77-14.058-9.77z" fill="#ff435b"/></g></svg>