<svg id="Layer_1" enable-background="new 0 0 512 512" height="512" viewBox="0 0 512 512" width="512" xmlns="http://www.w3.org/2000/svg"><g><path d="m7.5 112h497v288h-497z" fill="#7be492"/><path d="m7.5 367h58c61.304 0 111-49.696 111-111s-49.696-111-111-111h-58z" fill="#ffd54f"/><circle cx="256.5" cy="256.5" fill="#f74f68" r="30"/><path d="m7.5 206h109v100h-109z" fill="#f74f68"/><path d="m504.5 367h-58c-61.304 0-111-49.696-111-111s49.696-111 111-111h58z" fill="#ffd54f"/><path d="m395.5 206h109v100h-109z" fill="#f74f68" transform="matrix(-1 0 0 -1 900 512)"/><circle cx="116.5" cy="256" fill="#80deea" r="30"/><circle cx="395.5" cy="256" fill="#80deea" r="30"/><g><path d="m448.053 392.5h-184.553v-9.001c0-4.142-3.357-7.5-7.5-7.5-4.142 0-7.5 3.358-7.5 7.5v9.001h-233.5v-18h50.5c65.341 0 118.5-53.159 118.5-118.5s-53.159-118.5-118.5-118.5h-50.5v-18h16.868c4.142 0 7.5-3.358 7.5-7.5s-3.358-7.5-7.5-7.5h-24.368c-4.142 0-7.5 3.358-7.5 7.5v288c0 4.142 3.358 7.5 7.5 7.5h440.553c4.143 0 7.5-3.358 7.5-7.5s-3.358-7.5-7.5-7.5zm-339.053-179v5.755c-17.096 3.484-30 18.635-30 36.745s12.904 33.261 30 36.745v5.755h-94v-85zm7.5 65c-12.407 0-22.5-10.093-22.5-22.5s10.093-22.5 22.5-22.5 22.5 10.093 22.5 22.5-10.093 22.5-22.5 22.5zm-51-126c57.07 0 103.5 46.43 103.5 103.5s-46.43 103.5-103.5 103.5h-50.5v-46h15.833v16.999c0 4.142 3.358 7.5 7.5 7.5s7.5-3.358 7.5-7.5v-16.999h28v16.999c0 4.142 3.358 7.5 7.5 7.5s7.5-3.358 7.5-7.5v-16.999h27.667c4.142 0 7.5-3.358 7.5-7.5v-13.255c17.096-3.484 30-18.635 30-36.745s-12.904-33.261-30-36.745v-13.255c0-4.142-3.358-7.5-7.5-7.5h-27.667v-14.5c0-4.142-3.358-7.5-7.5-7.5s-7.5 3.358-7.5 7.5v14.5h-28v-14.5c0-4.142-3.358-7.5-7.5-7.5s-7.5 3.358-7.5 7.5v14.5h-15.833v-46z"/><path d="m504.5 104.5h-440.26c-4.142 0-7.5 3.358-7.5 7.5s3.358 7.5 7.5 7.5h184.26v100.368c-16.846 3.676-29.5 18.7-29.5 36.632s12.654 32.956 29.5 36.632v58.366c0 4.142 3.358 7.5 7.5 7.5 4.143 0 7.5-3.358 7.5-7.5v-58.164c17.342-3.289 30.5-18.55 30.5-36.835s-13.158-33.546-30.5-36.835v-100.164h233.5v18h-50.5c-65.341 0-118.5 53.159-118.5 118.5s53.159 118.5 118.5 118.5h50.5v18h-16.575c-4.143 0-7.5 3.358-7.5 7.5s3.357 7.5 7.5 7.5h24.075c4.143 0 7.5-3.358 7.5-7.5v-288c0-4.142-3.357-7.5-7.5-7.5zm-225.5 152c0 12.407-10.094 22.5-22.5 22.5-12.407 0-22.5-10.093-22.5-22.5s10.093-22.5 22.5-22.5c12.406 0 22.5 10.093 22.5 22.5zm124 42v-5.753c17.096-3.485 30-18.637 30-36.747s-12.904-33.262-30-36.747v-5.753h94v85zm-7.5-65c12.406 0 22.5 10.093 22.5 22.5s-10.094 22.5-22.5 22.5-22.5-10.093-22.5-22.5 10.094-22.5 22.5-22.5zm51 126c-57.07 0-103.5-46.43-103.5-103.5s46.43-103.5 103.5-103.5h50.5v46h-19v-14.5c0-4.142-3.357-7.5-7.5-7.5s-7.5 3.358-7.5 7.5v14.5h-28v-14.5c0-4.142-3.357-7.5-7.5-7.5s-7.5 3.358-7.5 7.5v14.5h-24.5c-4.143 0-7.5 3.358-7.5 7.5v13.255c-17.096 3.484-30 18.635-30 36.745s12.904 33.261 30 36.745v13.255c0 4.142 3.357 7.5 7.5 7.5h24.499v16.999c0 4.142 3.357 7.5 7.5 7.5s7.5-3.358 7.5-7.5v-16.999h28v16.999c0 4.142 3.357 7.5 7.5 7.5s7.5-3.358 7.5-7.5v-16.999h19.001v46z"/></g></g></svg>