<svg height="512" viewBox="0 0 512 512" width="512" xmlns="http://www.w3.org/2000/svg"><g><path d="m312.29 264.094a243.509 243.509 0 0 1 -24.145-71.465c-2.073-12.077 3.972-23.409 6.207-35.457 1.735-9.348-6.039-15.384-11.976-22.81-1.883-2.355-4.077-4.676-6.963-5.55-6.28-1.905-12.648 4.31-13.483 10.819s2.106 12.843 4.971 18.748c-3.73 6.233-6.172 12.388-9.9 18.621h-2c-3.729-6.233-6.171-12.388-9.9-18.621 2.865-5.905 5.806-12.239 4.971-18.748s-7.2-12.724-13.483-10.819c-2.886.874-5.08 3.195-6.963 5.55-5.937 7.426-13.711 13.462-11.976 22.81 2.235 12.048 8.28 23.38 6.207 35.457a243.509 243.509 0 0 1 -24.145 71.465z" fill="#fad6c6"/><g><path d="m223.064 154.919c3.632.828 7.376-.87 10.394-3.053a32.67 32.67 0 0 0 12.647-20.107c-2.573-2.573-6.057-4-9.518-2.947-2.886.874-5.08 3.195-6.963 5.55-4.354 5.446-9.681 10.149-11.536 15.955a7.134 7.134 0 0 0 4.976 4.602z" fill="#f0f8fc"/><path d="m284.4 169.345a24.967 24.967 0 0 0 6.6.662c1.095-3.738 2.23-7.5 3.038-11.32a12.678 12.678 0 0 1 -7.087 2.078c-4.6 0-9.093-1.9-12.853-4.307a35.325 35.325 0 0 1 -12.258-13.118c.378 5.2 2.743 10.262 5.061 15.038-.024.04-.045.079-.068.119a32.478 32.478 0 0 0 17.567 10.848z" fill="#35495e"/><path d="m274.1 156.458c3.76 2.4 8.254 4.309 12.853 4.307a12.678 12.678 0 0 0 7.087-2.078c.107-.505.216-1.008.31-1.515a13.784 13.784 0 0 0 -.44-6.855 7.134 7.134 0 0 1 -4.976 4.6c-3.632.828-7.376-.87-10.394-3.053a32.67 32.67 0 0 1 -12.64-20.105 13.923 13.923 0 0 0 -3.965 7.872 18.578 18.578 0 0 0 -.09 3.709 35.325 35.325 0 0 0 12.255 13.118z" fill="#dff1fc"/><path d="m278.542 151.866c3.018 2.183 6.762 3.881 10.394 3.053a7.134 7.134 0 0 0 4.976-4.6c-1.855-5.806-7.182-10.509-11.536-15.955-1.883-2.355-4.077-4.676-6.963-5.55-3.461-1.05-6.945.374-9.518 2.947a32.67 32.67 0 0 0 12.647 20.105z" fill="#f0f8fc"/><path d="m312.29 264.09h-112.58a242.506 242.506 0 0 0 17.14-41.96 30.012 30.012 0 0 1 17.63-6.38 30.022 30.022 0 0 1 21.9 8.97 37.93 37.93 0 0 1 7.62-4.93 35.058 35.058 0 0 1 15.9-3.74 36.052 36.052 0 0 1 14.4 3.24 242.434 242.434 0 0 0 17.99 44.8z" fill="#00a8e7"/><path d="m227.6 169.345a32.478 32.478 0 0 0 17.567-10.845c-.023-.04-.044-.079-.068-.119 2.318-4.776 4.683-9.834 5.061-15.038a35.325 35.325 0 0 1 -12.26 13.115c-3.76 2.4-8.254 4.309-12.853 4.307a12.678 12.678 0 0 1 -7.087-2.078c.808 3.823 1.943 7.582 3.038 11.32a24.967 24.967 0 0 0 6.602-.662z" fill="#35495e"/><path d="m237.9 156.458a35.325 35.325 0 0 0 12.26-13.118 18.578 18.578 0 0 0 -.09-3.709 13.923 13.923 0 0 0 -3.965-7.872 32.67 32.67 0 0 1 -12.647 20.107c-3.018 2.183-6.762 3.881-10.394 3.053a7.134 7.134 0 0 1 -4.976-4.6 13.784 13.784 0 0 0 -.44 6.855c.094.507.2 1.01.31 1.515a12.678 12.678 0 0 0 7.087 2.078c4.599 0 9.093-1.905 12.855-4.309z" fill="#dff1fc"/><path d="m264 219.79v28.21a8 8 0 0 1 -16 0v-29.28a29.431 29.431 0 0 1 8.38 6 37.93 37.93 0 0 1 7.62-4.93z" fill="#047699"/></g><path d="m256 224a8 8 0 0 1 -8-8v-200a8 8 0 0 1 16 0v200a8 8 0 0 1 -8 8z" fill="#ffec00"/><path d="m200 184h112v32h-112z" fill="#e22526"/><g><path d="m143.765 334.771a279.287 279.287 0 0 1 -109.311-54.771c-8.933 6.111-12.744 18.8-9.906 29.248a26.981 26.981 0 0 0 23.529 19.317c-7.747.547-13.126 9.672-11.584 17.284s9.066 13.19 16.819 13.653 15.34-3.562 20.391-9.462c21.623 15.571 45.466 26.741 70.927 34.6.019-16.951.8-32.329.822-49.28.772 1.788-2.458-2.377-1.687-.589z" fill="#fad6c6"/><g><path d="m145.125 356.529c.165-6.8.312-13.631.325-20.739-.485-.225-2.283-2.4-1.685-1.019a276.985 276.985 0 0 1 -37.25-12.1 122.042 122.042 0 0 0 -4.487 22.46 316.3 316.3 0 0 0 43.097 11.398z" fill="#f98800"/><path d="m102.028 345.129a122.3 122.3 0 0 0 -.3 22.091 259.061 259.061 0 0 0 42.9 17.421c.011-9.687.27-18.864.5-28.112a316.3 316.3 0 0 1 -43.1-11.4z" fill="#d87100"/><path d="m102.028 345.129a315.736 315.736 0 0 1 -35.591-14.624 33.409 33.409 0 0 1 -30.148 13.943 13.243 13.243 0 0 0 .2 1.4c1.542 7.611 9.066 13.19 16.819 13.653s15.34-3.562 20.391-9.462a225.148 225.148 0 0 0 28.031 17.181 122.3 122.3 0 0 1 .298-22.091z" fill="#eaaa94"/><path d="m145.452 335.361v.429c.139.065.174-.026 0-.429z" fill="#fad6c6"/></g></g><g><path d="m368.235 334.771a279.287 279.287 0 0 0 109.311-54.771c8.933 6.111 12.744 18.8 9.906 29.248a26.981 26.981 0 0 1 -23.529 19.317c7.747.547 13.126 9.672 11.584 17.284s-9.066 13.19-16.819 13.653-15.34-3.562-20.391-9.462c-21.623 15.571-45.466 26.741-70.927 34.6-.019-16.951-.8-32.329-.822-49.28-.772 1.788 2.458-2.377 1.687-.589z" fill="#fad6c6"/><g><path d="m366.875 356.529c-.165-6.8-.312-13.631-.325-20.739.485-.225 2.283-2.4 1.685-1.019a276.985 276.985 0 0 0 37.25-12.1 122.042 122.042 0 0 1 4.487 22.46 316.3 316.3 0 0 1 -43.097 11.398z" fill="#f98800"/><path d="m409.972 345.129a122.3 122.3 0 0 1 .3 22.091 259.061 259.061 0 0 1 -42.9 17.421c-.011-9.687-.27-18.864-.5-28.112a316.3 316.3 0 0 0 43.1-11.4z" fill="#d87100"/><path d="m409.972 345.129a315.736 315.736 0 0 0 35.591-14.624 33.409 33.409 0 0 0 30.148 13.943 13.243 13.243 0 0 1 -.2 1.4c-1.542 7.611-9.066 13.19-16.819 13.653s-15.34-3.562-20.391-9.462a225.148 225.148 0 0 1 -28.031 17.181 122.3 122.3 0 0 0 -.298-22.091z" fill="#eaaa94"/><path d="m366.548 335.361v.429c-.139.065-.174-.026 0-.429z" fill="#fad6c6"/></g></g><path d="m395.458 380.837c-1.508-9.621-9.468-18.621-19.617-19.051-13.841-152.133-226.841-150.136-239.682 0-16.966.888-24.511 22-16.847 35.9 5.544 11.9 18.189 19.432 29.936 25.173v.009c43.68 84.426 166.132 89.048 213.494 0v-.009c16.882-7.679 35.49-21.725 32.716-42.022z" fill="#fad6c6"/><circle cx="184" cy="424" fill="#f78663" r="16"/><circle cx="328" cy="424" fill="#f78663" r="16"/><path d="m381.2 379.994c-8.888 2.447-11.913 12.758-13.3 21.264-.913-5.37-1.713-10.246-2.626-15.616-20.444 100.237-199.456 98.19-218.55 0-.913 5.37-1.713 10.246-2.626 15.616-2.023-22.179-21.19-28.955-27.581-12.844 2.105 16.669 17.938 27.448 32.73 34.444v.009c43.68 84.426 166.132 89.048 213.494 0v-.009c14.733-6.96 30.4-17.509 32.73-34.444-1.157-5.677-8.105-10.106-14.271-8.42z" fill="#eaaa94"/><path d="m195.38 401.783a8 8 0 0 1 -6.68-12.391 24.531 24.531 0 0 1 18.266-10.9c.353-.03.709-.053 1.063-.067-.189-.155-.383-.3-.579-.442a8 8 0 1 1 9.244-13.058 30.515 30.515 0 0 1 12.227 27.665 8 8 0 0 1 -13.775 4.455 8.348 8.348 0 0 0 -13.071 1.124 7.993 7.993 0 0 1 -6.695 3.614z" fill="#333"/><path d="m316.62 401.783a7.993 7.993 0 0 1 -6.695-3.611 8.348 8.348 0 0 0 -13.071-1.124 8 8 0 0 1 -13.775-4.455 30.515 30.515 0 0 1 12.227-27.665 8 8 0 1 1 9.244 13.058c-.2.139-.39.287-.579.442.354.014.709.037 1.063.067a24.531 24.531 0 0 1 18.266 10.9 8 8 0 0 1 -6.68 12.391z" fill="#333"/><ellipse cx="256" cy="424" fill="#f99c78" rx="16" ry="24"/><g><path d="m256 271c48.44 1.6 100.092 23.347 117.724 73.639a120.024 120.024 0 0 0 -235.448 0c17.632-50.292 69.284-72.039 117.724-73.639z" fill="#2b2b2b"/><path d="m373.724 344.639c-17.632-50.292-69.284-72.039-117.724-73.639-48.44 1.6-100.092 23.347-117.724 73.639a120.111 120.111 0 0 0 -2.117 17.147 24.04 24.04 0 0 1 14.117 4.163 40.528 40.528 0 0 1 11.642 12.562c-3.82-8.587-7.341-19.352-7.349-28.751s4.952-19.482 13.877-22.427c5.63-1.857 11.88-.616 17.267 1.86s10.141 6.109 15.127 9.317c16.85 10.84 35.127 13.112 55.16 13.49 20.033-.378 38.31-2.65 55.16-13.49 4.986-3.208 9.74-6.841 15.127-9.317s11.637-3.717 17.267-1.86c8.925 2.945 13.886 13.029 13.877 22.427s-3.529 20.164-7.349 28.751a40.528 40.528 0 0 1 11.642-12.562 24.04 24.04 0 0 1 14.117-4.163 120.111 120.111 0 0 0 -2.117-17.147z" fill="#333"/></g></g></svg>