<svg id="Capa_1" enable-background="new 0 0 512.002 512.002" height="512" viewBox="0 0 512.002 512.002" width="512" xmlns="http://www.w3.org/2000/svg"><g><g><g><g><g><path d="m466.885 512.002c-146.435.002-151.794-210.002-241.884-210.002-8.284 0-15-6.716-15-15v-60c0-8.284 6.716-15 15-15 157.651 0 167.261 210 242 210h30c8.284 0 15 6.716 15 15v60c0 8.284-6.716 15-15 15h-29.27c-.282.001-.565.002-.846.002z" fill="#6aa9ff"/></g></g></g></g><g><path d="m15.001 512c-8.284 0-15-6.716-15-15v-195c0-8.284 6.716-15 15-15s15 6.716 15 15v195c0 8.284-6.716 15-15 15z" fill="#d3f3c2"/></g><g><path d="m225.001 512c-8.284 0-15-6.716-15-15v-195c0-8.284 6.716-15 15-15s15 6.716 15 15v195c0 8.284-6.716 15-15 15z" fill="#b3dfb3"/></g><g><path d="m234.881 95.72-105-92c-2.82-2.48-6.35-3.72-9.88-3.72s-7.06 1.24-9.88 3.72l-105 92c-3.32 2.91-5.12 7.04-5.12 11.28l120 15 120-15c0-4.24-1.8-8.37-5.12-11.28z" fill="#ff7b4a"/></g><path d="m240.001 107-120 15v-122c3.53 0 7.06 1.24 9.88 3.72l105 92c3.32 2.91 5.12 7.04 5.12 11.28z" fill="#ff435b"/><path d="m240.001 107v195h-60l-60-30-60 30h-60v-195z" fill="#fed843"/><path d="m240.001 302v-195h-120v165l60 30z" fill="#fabe2c"/><path d="m120.001 152c-33.08 0-60 26.92-60 60v90 195c0 8.28 6.72 15 15 15s15-6.72 15-15v-15h60v15c0 8.28 6.72 15 15 15s15-6.72 15-15v-195-90c0-33.08-26.92-60-60-60zm30 300h-60v-30h60zm0-60h-60v-30h60zm0-60h-60v-30h60z" fill="#704c55"/><path d="m120.001 152v150h30v30h-30v30h30v30h-30v30h30v30h-30v30h30v15c0 8.28 6.72 15 15 15s15-6.72 15-15v-195-90c0-33.08-26.92-60-60-60z" fill="#5b362a"/></g></svg>