<?xml version="1.0" encoding="iso-8859-1"?>
<!-- Generator: Adobe Illustrator 19.0.0, SVG Export Plug-In . SVG Version: 6.00 Build 0)  -->
<svg version="1.1" id="Capa_1" xmlns="http://www.w3.org/2000/svg" xmlns:xlink="http://www.w3.org/1999/xlink" x="0px" y="0px"
	 viewBox="0 0 480 480" style="enable-background:new 0 0 480 480;" xml:space="preserve">
<g>
	<g>
		<path d="M464,464V56c-0.035-30.913-25.087-55.965-56-56H72C41.087,0.035,16.035,25.087,16,56v408H0v16h48v-16H32V56
			c0.026-22.08,17.92-39.974,40-40v280c-13.255,0-24,10.745-24,24s10.745,24,24,24h4.688c5.124-0.013,10.041,2.024,13.656,5.656
			c6.607,6.644,15.598,10.369,24.968,10.344h49.376c9.37,0.025,18.361-3.7,24.968-10.344c3.615-3.632,8.532-5.669,13.656-5.656H208
			c13.255,0,24-10.745,24-24s-10.745-24-24-24V16h64v280c-13.255,0-24,10.745-24,24s10.745,24,24,24h4.688
			c5.124-0.013,10.041,2.024,13.656,5.656c6.607,6.644,15.598,10.369,24.968,10.344h49.376c9.37,0.025,18.361-3.7,24.968-10.344
			c3.615-3.632,8.532-5.669,13.656-5.656H408c13.255,0,24-10.745,24-24s-10.745-24-24-24V16c22.08,0.026,39.974,17.92,40,40v408h-16
			v16h48v-16H464z M88,16h104v280.32c-8.171,0.696-15.838,4.244-21.656,10.024c-3.615,3.632-8.532,5.669-13.656,5.656h-33.376
			c-5.124,0.013-10.041-2.024-13.656-5.656c-5.818-5.78-13.485-9.328-21.656-10.024V16z M216,320c0,4.418-3.582,8-8,8h-4.688
			c-9.37-0.025-18.361,3.7-24.968,10.344c-3.615,3.632-8.532,5.669-13.656,5.656h-49.376c-5.124,0.013-10.041-2.024-13.656-5.656
			C95.049,331.7,86.058,327.975,76.688,328H72c-4.418,0-8-3.582-8-8s3.582-8,8-8h12.688c5.124-0.013,10.041,2.024,13.656,5.656
			c6.607,6.644,15.598,10.369,24.968,10.344h33.376c9.37,0.025,18.361-3.7,24.968-10.344c3.615-3.632,8.532-5.669,13.656-5.656H208
			C212.418,312,216,315.582,216,320z M288,16h104v280.32c-8.171,0.696-15.838,4.244-21.656,10.024
			c-3.615,3.632-8.532,5.669-13.656,5.656h-33.376c-5.124,0.013-10.041-2.024-13.656-5.656c-5.818-5.78-13.485-9.328-21.656-10.024
			V16z M416,320c0,4.418-3.582,8-8,8h-4.688c-9.37-0.025-18.361,3.7-24.968,10.344c-3.615,3.632-8.532,5.669-13.656,5.656h-49.376
			c-5.124,0.013-10.041-2.024-13.656-5.656c-6.607-6.644-15.598-10.369-24.968-10.344H272c-4.418,0-8-3.582-8-8s3.582-8,8-8h12.688
			c5.124-0.013,10.041,2.024,13.656,5.656c6.607,6.644,15.598,10.369,24.968,10.344h33.376c9.37,0.025,18.361-3.7,24.968-10.344
			c3.615-3.632,8.532-5.669,13.656-5.656H408C412.418,312,416,315.582,416,320z"/>
	</g>
</g>
<g>
</g>
<g>
</g>
<g>
</g>
<g>
</g>
<g>
</g>
<g>
</g>
<g>
</g>
<g>
</g>
<g>
</g>
<g>
</g>
<g>
</g>
<g>
</g>
<g>
</g>
<g>
</g>
<g>
</g>
</svg>
