<svg id="Capa_1" enable-background="new 0 0 512 512" height="512" viewBox="0 0 512 512" width="512" xmlns="http://www.w3.org/2000/svg"><g><g><path d="m499.355 96.347h-486.71c-4.228 0-6.649 4.819-4.125 8.211l9.466 12.725c14.476 19.459 22.294 43.067 22.294 67.32v30.906h431.442v-30.906c0-24.253 7.818-47.861 22.294-67.32l9.466-12.725c2.522-3.392.101-8.211-4.127-8.211z" fill="#95d6a4"/></g><g><path d="m499.355 96.347h-57.417c4.228 0 6.649 4.819 4.125 8.211l-9.466 12.725c-14.476 19.459-22.294 43.067-22.294 67.32v30.906h57.418v-30.906c0-24.253 7.818-47.861 22.294-67.32l9.466-12.725c2.523-3.392.102-8.211-4.126-8.211z" fill="#78c2a4"/></g><g><path d="m461.721 415.653h-411.442c-5.523 0-10-4.477-10-10v-213.698h431.442v213.698c0 5.523-4.477 10-10 10z" fill="#e7ecf6"/></g><g><path d="m414.303 191.955v213.709c0 5.517-4.472 9.99-9.99 9.99h57.418c5.517 0 9.99-4.472 9.99-9.99v-213.709z" fill="#d8e2f1"/></g><g><path d="m171.322 245.378h-66.387c-8.284 0-15 6.716-15 15v155.275h96.387v-155.275c0-8.284-6.715-15-15-15z" fill="#9d6b6b"/></g><g><path d="m171.338 245.378h-28.305c8.276 0 14.984 6.709 14.984 14.984v155.29h28.305v-155.29c0-8.275-6.708-14.984-14.984-14.984z" fill="#8b5e5e"/></g><g><path d="m510.645 95.818c-2.158-4.294-6.483-6.962-11.289-6.962h-95.103c-4.138 0-7.492 3.354-7.492 7.492s3.354 7.492 7.492 7.492h90.425l-6.674 8.971c-15.304 20.572-23.741 46.013-23.772 71.651h-333.383c-4.138 0-7.492 3.354-7.492 7.492s3.354 7.492 7.492 7.492h333.379l.001 151.275c0 4.138 3.354 7.492 7.492 7.492s7.492-3.354 7.492-7.492l-.001-166.119c0-22.486 7.392-44.806 20.813-62.848l9.466-12.725c2.869-3.855 3.311-8.918 1.154-13.211z"/><path d="m471.721 379.16c-4.138 0-7.492 3.354-7.492 7.492v19.011c0 1.377-1.12 2.497-2.497 2.497h-267.917v-147.797c0-12.393-10.083-22.477-22.477-22.477h-66.418c-12.393 0-22.477 10.083-22.477 22.477v147.797h-32.175c-1.377 0-2.497-1.12-2.497-2.497v-206.217h45.117c4.138 0 7.492-3.354 7.492-7.492s-3.354-7.492-7.492-7.492h-45.12c-.031-25.64-8.469-51.08-23.771-71.651l-6.674-8.971h347.595c4.138 0 7.492-3.354 7.492-7.492s-3.354-7.492-7.492-7.492h-352.274c-4.806 0-9.131 2.668-11.289 6.962-2.157 4.294-1.715 9.357 1.153 13.213l9.466 12.725c13.421 18.041 20.812 40.36 20.812 62.848v221.061c0 9.639 7.842 17.482 17.482 17.482h411.463c9.639 0 17.482-7.842 17.482-17.482v-19.011c.001-4.14-3.353-7.494-7.492-7.494zm-374.294 29v-147.797c0-4.131 3.361-7.492 7.492-7.492h66.418c4.131 0 7.492 3.361 7.492 7.492v147.797z"/><path d="m129.506 328.744h-11.938c-4.138 0-7.492 3.354-7.492 7.492s3.354 7.492 7.492 7.492h11.938c4.138 0 7.492-3.354 7.492-7.492s-3.353-7.492-7.492-7.492z"/><path d="m389.059 276.856c6.847 0 13.451 2.016 19.096 5.83 3.429 2.315 8.086 1.415 10.402-2.014 2.316-3.428 1.415-8.085-2.014-10.402-8.132-5.493-17.636-8.398-27.484-8.398-27.1 0-49.147 22.047-49.147 49.147 0 27.101 22.047 49.148 49.147 49.148 10.748 0 20.376-3.516 27.846-10.169 1.463-1.303 2.855-2.739 4.137-4.267 2.659-3.17 2.246-7.896-.925-10.555-3.17-2.659-7.895-2.246-10.555.925-.818.975-1.7 1.886-2.624 2.709-4.748 4.229-10.764 6.373-17.879 6.373-18.838 0-34.163-15.326-34.163-34.164s15.325-34.163 34.163-34.163z"/><path d="m240.08 353.93c1.327 3.737 4.87 6.238 8.832 6.238h.06c3.986-.025 7.528-2.578 8.813-6.353.022-.066.044-.133.065-.199l18.194-58.781 18.113 58.795c.031.1.064.201.099.299 1.327 3.737 4.87 6.238 8.832 6.238h.063c3.987-.026 7.528-2.581 8.811-6.357.106-.31.191-.626.255-.948l16.297-81.884c.808-4.058-1.827-8.002-5.885-8.81-4.058-.812-8.002 1.827-8.81 5.885l-11.91 59.841-18.711-60.737c-1.218-3.954-5.411-6.17-9.366-4.955-2.735.842-4.637 3.108-5.149 5.733l-18.559 59.961-11.866-59.987c-.803-4.059-4.741-6.699-8.803-5.896-4.059.803-6.699 4.744-5.896 8.803l16.232 82.06c.07.359.167.711.289 1.054z"/></g></g></svg>