<?xml version="1.0" encoding="utf-8"?>
<!-- Generator: Adobe Illustrator 24.1.3, SVG Export Plug-In . SVG Version: 6.00 Build 0)  -->
<svg version="1.1" id="Layer_1" xmlns:svgjs="http://svgjs.com/svgjs"
	 xmlns="http://www.w3.org/2000/svg" xmlns:xlink="http://www.w3.org/1999/xlink" x="0px" y="0px" viewBox="0 0 140 140"
	 style="enable-background:new 0 0 140 140;" xml:space="preserve">
<style type="text/css">
	.st0{fill:none;stroke:#000000;stroke-width:8.75;stroke-linecap:round;stroke-linejoin:round;stroke-miterlimit:23.3333;}
	.st1{fill:#FFFFFF;stroke:#000000;stroke-width:8.75;stroke-linecap:round;stroke-linejoin:round;stroke-miterlimit:23.3333;}
</style>
<path class="st0" d="M71,18.5v91.9"/>
<path class="st0" d="M61.8,120.5c0,2.3,4.1,4.1,9.2,4.1s9.2-1.8,9.2-4.1s-4.1-4.1-9.2-4.1S61.8,118.3,61.8,120.5z"/>
<path class="st1" d="M63.8,50.1c0,7.2,5.9,13.1,13.1,13.1c7.2,0,13.1-5.9,13.1-13.1S84.1,37,76.9,37C69.7,37,63.8,42.9,63.8,50.1z"
	/>
<path class="st1" d="M85.8,126.3l-3-14.9H72.5c-4.8,0-8.8-3.9-8.8-8.8l0,0V80.8c0-4.8,3.9-8.8,8.8-8.8s8.8,3.9,8.8,8.8v13.1H90
	c4.2,0,7.8,2.9,8.6,7l4.4,21.9c0.9,4.7-2.1,9.3-6.9,10.3S86.8,131,85.8,126.3L85.8,126.3L85.8,126.3z"/>
<path class="st0" d="M119.4,28.3L30.1,6.7"/>
</svg>
